{"title":"Teen Wolf Season 4 EP4 The Benefactor WEB-DL","uid":10580885,"size":468366791,"categoryP":"video","categoryS":"tv_shows","magnet":"?xt=urn:btih:1f9765c9452d1586fe817bd03a0b846dcbeff679&amp;dn=Teen+Wolf+Season+4+EP4+The+Benefactor+WEB-DL&amp;tr=udp%3A%2F%2Ftracker.openbittorrent.com%3A80&amp;tr=udp%3A%2F%2Fopen.demonii.com%3A1337&amp;tr=udp%3A%2F%2Ftracker.coppersurfer.tk%3A6969&amp;tr=udp%3A%2F%2Fexodus.desync.com%3A6969","seeders":6,"leechers":2,"uploader":"jmanwf","files":3,"time":1405681635,"description":"On the night of the full moon, uninvited guests turn up at Lydia's lake house; Derek pursues a killer\n\n\n\nFormat                                   : MPEG-4\nFormat profile                           : Base Media / Version 2\nCodec ID                                 : mp42\nFile size                                : 447 MiB\nDuration                                 : 41mn 55s\nOverall bit rate mode                    : Variable\nOverall bit rate                         : 1 489 Kbps\nMovie name                               : The Benefactor\nAlbum                                    : Teen Wolf, Season 4\nPerformer                                : Teen Wolf\nGenre                                    : Sci-Fi &amp; Fantasy\n\n\nVideo\nID                                       : 1\nFormat                                   : AVC\nFormat/Info                              : Advanced Video Codec\nFormat profile                           : &lt;a class=&quot;__cf_email__&quot; href=&quot;/cdn-cgi/l/email-protection&quot; data-cfemail=&quot;5c113d35321c1068726c&quot;&gt;[email&amp;#160;protected]&lt;/a&gt;&lt;script cf-hash='f9e31' type=&quot;text/javascript&quot;&gt;\n/* &lt;![CDATA[ */!function(){try{var t=&quot;currentScript&quot;in document?document.currentScript:function(){for(var t=document.getElementsByTagName(&quot;script&quot;),e=t.length;e--;)if(t[e].getAttribute(&quot;cf-hash&quot;))return t[e]}();if(t&amp;&amp;t.previousSibling){var e,r,n,i,c=t.previousSibling,a=c.getAttribute(&quot;data-cfemail&quot;);if(a){for(e=&quot;&quot;,r=parseInt(a.substr(0,2),16),n=2;a.length-n;n+=2)i=parseInt(a.substr(n,2),16)^r,e+=String.fromCharCode(i);e=document.createTextNode(e),c.parentNode.replaceChild(e,c)}}}catch(u){}}();/* ]]&gt; */&lt;/script&gt;\nFormat settings, CABAC                   : Yes\nFormat settings, ReFrames                : 4 frames\nCodec ID                                 : avc1\nCodec ID/Info                            : Advanced Video Coding\nDuration                                 : 41mn 55s\nBit rate                                 : 1 324 Kbps\nWidth                                    : 1 280 pixels\nHeight                                   : 720 pixels\nDisplay aspect ratio                     : 16:9\nFrame rate mode                          : Variable\nFrame rate                               : 23.976 fps\nMinimum frame rate                       : 11.989 fps\nMaximum frame rate                       : 23.981 fps\nColor space                              : YUV\nChroma subsampling                       : 4:2:0\nBit depth                                : 8 bits\nScan type                                : Progressive\nBits/(Pixel*Frame)                       : 0.060\nStream size                              : 397 MiB (89%)\nWriting library                          : x264 core 130 r2273 b3065e6\n\nEncoded date                             : UTC 2014-07-18 03:49:25\nTagged date                              : UTC 2014-07-18 04:27:03\nColor primaries                          : BT.709\nTransfer characteristics                 : BT.709\nMatrix coefficients                      : BT.709\n\nAudio\nID                                       : 2\nFormat                                   : AAC\nFormat/Info                              : Advanced Audio Codec\nFormat profile                           : LC\nCodec ID                                 : 40\nDuration                                 : 41mn 55s\nBit rate mode                            : Variable\nBit rate                                 : 160 Kbps\nMaximum bit rate                         : 341 Kbps\nChannel(s)                               : 2 channels\nChannel positions                        : Front: L R\nSampling rate                            : 44.1 KHz\nCompression mode                         : Lossy\nStream size                              : 48.0 MiB (11%)\nLanguage                                 : English\nEncoded date                             : UTC 2014-07-18 03:49:25\nTagged date                              : UTC 2014-07-18 04:27:02\n\n","torrent":{"xt":"urn:btih:1f9765c9452d1586fe817bd03a0b846dcbeff679","amp;dn":"Teen+Wolf+Season+4+EP4+The+Benefactor+WEB-DL","amp;tr":["udp%3A%2F%2Ftracker.openbittorrent.com%3A80","udp%3A%2F%2Fopen.demonii.com%3A1337","udp%3A%2F%2Ftracker.coppersurfer.tk%3A6969","udp%3A%2F%2Fexodus.desync.com%3A6969"],"infoHash":"1f9765c9452d1586fe817bd03a0b846dcbeff679","infoHashBuffer":{"type":"Buffer","data":[31,151,101,201,69,45,21,134,254,129,123,208,58,11,132,109,203,239,246,121]},"announce":[],"urlList":[]}}